<svg xmlns="http://www.w3.org/2000/svg" viewBox="0 0 64 64" role="img" aria-label="Hafalan Juz Amma">
  <defs>
    <linearGradient id="bg" x1="0" y1="0" x2="1" y2="1">
      <stop offset="0" stop-color="#10b981"/>
      <stop offset="1" stop-color="#0d9488"/>
    </linearGradient>
  </defs>
  <rect width="64" height="64" rx="14" fill="url(#bg)"/>
  <path d="M18 22c6-2 10-2 14 0v24c-4-2-8-2-14 0V22z" fill="#ffffff" opacity=".95"/>
  <path d="M46 22c-6-2-10-2-14 0v24c4-2 8-2 14 0V22z" fill="#ffffff" opacity=".85"/>
  <path d="M32 20v26" stroke="#d1fae5" stroke-width="2" stroke-linecap="round"/>
  <path d="M44 14a8 8 0 1 0 0 16a6 6 0 1 1 0-12a8 8 0 0 0 0-4z" fill="#fef3c7"/>
</svg>
